<?xml version="1.0" encoding="UTF-8"?>
<svg id="lg_1" data-name="lg 1" xmlns="http://www.w3.org/2000/svg" viewBox="0 0 565.75 936.83">
  <defs>
    <style>
      .cls-1 {
        font-family: AgencyFB-Reg, 'Agency FB';
        font-size: 266.17px;
      }
    </style>
  </defs>
  <g id="Camada_2" data-name="Camada 2">
    <g id="Camada_5" data-name="Camada 5">
      <path d="M156.62,554.49s-3.34-7.65-4.85-16.09l-63.96-16.09,63.06-9.19s6-21.32,9.58-23.87c-2.94-4.47-19.19-26.85-19.19-26.85l30.43,23.15c-1.02,0-10.6,14.81-8.98,28.6,2.16,18.41,49.02,84.77,114.04,81.7v102.47l-13.96-63.32s-36.34-.21-56-18.6l-54.3,37.32,32.09-58.13s-9.7-11.28-15.96-21.19l-12-19.91Z"/>
      <path d="M396.87,554.49s3.34-7.65,4.85-16.09l63.96-16.09-63.06-9.19s-6-21.32-9.58-23.87c2.94-4.47,19.19-26.85,19.19-26.85l-30.43,23.15c1.02,0,10.6,14.81,8.98,28.6-2.16,18.41-49.02,84.77-114.04,81.7v102.47s13.96-63.32,13.96-63.32c0,0,36.34-.21,56-18.6l54.3,37.32-32.09-58.13s9.7-11.28,15.96-21.19l12-19.91Z"/>
    </g>
    <path d="M278.35,568.99c7.6-.14,20.42-.79,21.01-3.6h-45.24c5.43,2.51,14.49,3.3,20.48,3.53l3.74,.06Z"/>
    <path d="M378.03,145.02s-22.98-67.91,0-137.36c0,0-64.89,117.94-61.96,194.55,0,0-12.13,11.49-39.33,15.19-27.2-3.7-39.33-15.19-39.33-15.19C240.34,125.6,175.46,7.66,175.46,7.66c22.98,69.45,0,137.36,0,137.36-43.4,97.53-16.13,148.09-16.13,148.09,0,0,.01,0,.02,0-.31,13.35,8.29,33.02,8.29,33.02,4.26,9.36,3.74,15.66,3.74,15.66,.27,7.46-7.18,28.47-10.43,37.26-.81,2.19,.08,4.6,2.06,5.83,12.09,7.52,22.03,24.26,27.24,34.4,2.05,3.99,4.64,7.65,7.45,11.16,10.57,13.2,14.26,62.08,14.88,64.55,.68,2.72-7.15,12.94-7.15,12.94,0,0-5.79,34.72,9.53,37.11,13.54,2.11,19.7,12.26,22.6,16.94,.59,.95,1.63,1.53,2.75,1.53h32.55s7.81,0,7.81,0h32.55c1.12,0,2.16-.57,2.75-1.53,2.89-4.68,9.05-14.83,22.6-16.94,15.32-2.38,9.53-37.11,9.53-37.11,0,0-7.83-10.21-7.15-12.94,.62-2.47,4.31-51.35,14.88-64.55,2.81-3.5,5.4-7.16,7.45-11.16,5.21-10.14,15.15-26.89,27.24-34.4,1.98-1.23,2.87-3.64,2.06-5.83-3.25-8.78-10.7-29.8-10.43-37.26,0,0-.51-6.3,3.74-15.66,0,0,8.6-19.67,8.29-33.02,0,0,.02,0,.02,0,0,0,27.27-50.55-16.13-148.09Zm-163.05,227.86c-12.94-5.29-27.06-13.53-22.35-43.53,0,0,38.82-9.41,44.7,45.88,0,0-9.41,2.94-22.35-2.35Zm122.12,0c-12.94,5.29-22.35,2.35-22.35,2.35,5.88-55.29,44.7-45.88,44.7-45.88,4.71,30-9.41,38.23-22.35,43.53Z"/>
    <g>
      <path d="M156.97,379.04c3.25-8.78,10.7-29.8,10.43-37.26,0,0,.51-6.3-3.74-15.66,0,0-8.6-19.67-8.29-33.02,0,0-.02,0-.02,0,0,0-27.27-50.55,16.13-148.09,0,0,19.35-57.21,4.77-120.31-7.38-15.27-12.58-24.71-12.58-24.71,22.98,69.45,0,137.36,0,137.36-43.4,97.53-16.13,148.09-16.13,148.09,0,0,.01,0,.02,0-.31,13.35,8.29,33.02,8.29,33.02,4.26,9.36,3.74,15.66,3.74,15.66,.27,7.46-7.18,28.47-10.43,37.26-.81,2.19,.08,4.6,2.06,5.83,1.89,1.18,3.73,2.6,5.51,4.17-.11-.77-.05-1.57,.24-2.35Z"/>
      <path d="M199.15,507.91s7.83-10.21,7.15-12.94c-.62-2.47-4.31-51.35-14.88-64.55-2.81-3.5-5.4-7.16-7.45-11.16-4.66-9.07-13.1-23.4-23.49-31.71,6.78,7.88,12.26,17.38,15.68,24.05,2.05,3.99,4.64,7.65,7.45,11.16,10.57,13.2,14.26,62.08,14.88,64.55,.68,2.72-7.15,12.94-7.15,12.94,0,0-5.63,33.85,8.99,36.98-4.24-10.93-1.18-29.32-1.18-29.32Z"/>
    </g>
    <g>
      <path d="M396.23,379.04c-3.25-8.78-10.7-29.8-10.43-37.26,0,0-.51-6.3,3.74-15.66,0,0,8.6-19.67,8.29-33.02,0,0,.02,0,.02,0,0,0,27.27-50.55-16.13-148.09,0,0-19.35-57.21-4.77-120.31,7.38-15.27,12.58-24.71,12.58-24.71-22.98,69.45,0,137.36,0,137.36,43.4,97.53,16.13,148.09,16.13,148.09,0,0-.01,0-.02,0,.31,13.35-8.29,33.02-8.29,33.02-4.26,9.36-3.74,15.66-3.74,15.66-.27,7.46,7.18,28.47,10.43,37.26,.81,2.19-.08,4.6-2.06,5.83-1.89,1.18-3.73,2.6-5.51,4.17,.11-.77,.05-1.57-.24-2.35Z"/>
      <path d="M354.05,507.91s-7.83-10.21-7.15-12.94c.62-2.47,4.31-51.35,14.88-64.55,2.81-3.5,5.4-7.16,7.45-11.16,4.66-9.07,13.1-23.4,23.49-31.71-6.78,7.88-12.26,17.38-15.68,24.05-2.05,3.99-4.64,7.65-7.45,11.16-10.57,13.2-14.26,62.08-14.88,64.55-.68,2.72,7.15,12.94,7.15,12.94,0,0,5.63,33.85-8.99,36.98,4.24-10.93,1.18-29.32,1.18-29.32Z"/>
    </g>
  </g>
  <g id="Camada_3" data-name="Camada 3">
    <text class="cls-1" transform="translate(0 883.55)"><tspan x="0" y="0">CANUC</tspan></text>
  </g>
</svg>